<svg xmlns="http://www.w3.org/2000/svg" width="32" height="32" viewBox="0 0 32 32">
  <title>Artboard 1</title>
  <path d="M16.024,20.061h0s.005,0,0,0,0,0,0,0h0c-4.978.013-4.886,3-4.886,3,0,1.782,1.35,1.631,1.35,1.631a2.42,2.42,0,0,1,2.482-2.528,1.478,1.478,0,0,0,1.051-1.028,1.479,1.479,0,0,0,1.051,1.028A2.422,2.422,0,0,1,19.555,24.7s1.35.151,1.35-1.631C20.9,23.065,21,20.074,16.024,20.061Z" fill="#eeeeee"/>
  <path d="M14.984,24.059a4.944,4.944,0,0,1,1.009-.207,5.74,5.74,0,0,1,1.06.207s.026,1.875-1.112,1.875C15.941,25.934,14.984,25.74,14.984,24.059Z" fill="#eeeeee"/>
  <path d="M17.964,23.5H14.072a.207.207,0,1,1,0-.413h3.892a.207.207,0,1,1,0,.413Z" fill="#eeeeee"/>
  <path d="M16.111,19.992a3.184,3.184,0,0,1-2.029-.809.414.414,0,0,1,.554-.614,2.765,2.765,0,0,0,.938.511,1.7,1.7,0,0,0,1.811-.5.414.414,0,0,1,.585.585A2.574,2.574,0,0,1,16.111,19.992Z" fill="#eeeeee"/>
  <path d="M29.094,11.727a.979.979,0,0,0-1.4,0,3.831,3.831,0,0,0-.928-2C25.632,2.948,21.251.044,16.018.044,10.82.044,6.464,3.158,5.3,9.7a3.82,3.82,0,0,0-.953,2.027.979.979,0,0,0-1.4,0s-.427,5.766,2.221,7.143L5.211,16.1a17.921,17.921,0,0,0,2.384,6.487c.012,1.643-.06,4.327-.631,5.019-1.586,1.924,2.754,4.28,8.861,4.421v.013c.076,0,.146-.006.221-.007s.145.007.222.007v-.013c6.108-.141,10.266-2.718,8.861-4.421-.438-.531-.557-3.5-.589-5.179a17.952,17.952,0,0,0,2.286-6.326l.048,2.765C29.522,17.493,29.094,11.727,29.094,11.727Zm-3.668,1.279a3.837,3.837,0,1,1-3.837-3.837A3.842,3.842,0,0,1,25.426,13.006ZM16.018,1.223a6.143,6.143,0,0,1,4.434,1.89l-.592.592a5.311,5.311,0,0,0-7.685,0l-.592-.592A6.142,6.142,0,0,1,16.018,1.223Zm0,4.188a1.967,1.967,0,0,0-1.472.664l-.593-.593a2.8,2.8,0,0,1,4.131,0l-.593.593A1.968,1.968,0,0,0,16.018,5.411Zm.88,1.257-.88.88-.88-.88a1.133,1.133,0,0,1,1.76,0Zm-.88-2.932a3.635,3.635,0,0,0-2.657,1.155L12.768,4.3a4.476,4.476,0,0,1,6.5,0l-.594.594A3.635,3.635,0,0,0,16.018,3.736ZM11.781,7.255c.534-.194,1.912-.416,3.449,1.554,0,0,.347.47.719.46a.969.969,0,0,0,.733-.46c1.634-2.1,3.22-1.736,3.711-1.552a7.291,7.291,0,0,1,1.875,1.19,8.307,8.307,0,0,0-4.547,1.7h-3.41A8.081,8.081,0,0,0,9.885,8.459,7.6,7.6,0,0,1,11.781,7.255ZM10.448,9.169a3.837,3.837,0,1,1-3.837,3.837A3.841,3.841,0,0,1,10.448,9.169Zm11,17.347a4.955,4.955,0,0,1-5.429,2.08,4.954,4.954,0,0,1-5.429-2.08S6.87,21.32,6.568,16.37a6.817,6.817,0,0,0,3.385.837c5.158,0,5.682-2.3,5.684-4.533H16.4c0,2.229.527,4.533,5.684,4.533a6.823,6.823,0,0,0,3.385-.844C25.166,21.313,21.447,26.516,21.447,26.516Z" fill="#eeeeee"/>
  <g>
    <path d="M21.588,9.664a3.342,3.342,0,1,0,3.342,3.342A3.346,3.346,0,0,0,21.588,9.664Zm-2.03,4.771a5.166,5.166,0,0,0,.055.717,2.916,2.916,0,0,1,1.975-5.065c.1,0,.2.005.3.015A5.193,5.193,0,0,0,19.558,14.435Z" fill="#eeeeee"/>
    <path d="M10.448,9.664a3.342,3.342,0,1,0,3.342,3.342A3.346,3.346,0,0,0,10.448,9.664Zm-2.03,4.771a5.233,5.233,0,0,0,.055.717,2.916,2.916,0,0,1,1.975-5.065c.1,0,.2.005.3.015A5.192,5.192,0,0,0,8.418,14.435Z" fill="#eeeeee"/>
  </g>
</svg>
