<svg xmlns="http://www.w3.org/2000/svg" width="16" height="16" viewBox="0 0 16 16">
  <title>nextdraft</title>
  <path fill="context-fill" d="M8.057,10.008h0c-2.489.007-2.443,1.5-2.443,1.5,0,.891.675.816.675.816a1.21,1.21,0,0,1,1.241-1.264.739.739,0,0,0,.525-.514.739.739,0,0,0,.526.514,1.211,1.211,0,0,1,1.242,1.264s.675.075.675-.816C10.5,11.51,10.546,10.015,8.057,10.008Z"/>
  <path fill="context-fill" d="M7.538,12.008a2.472,2.472,0,0,1,.5-.1,2.87,2.87,0,0,1,.53.1s.013.937-.556.937C8.017,12.945,7.538,12.848,7.538,12.008Z"/>
  <path fill="context-fill" d="M9.028,11.729H7.083a.1.1,0,1,1,0-.207H9.028a.1.1,0,1,1,0,.207Z"/>
  <path fill="context-fill" d="M8.1,9.974a1.592,1.592,0,0,1-1.015-.4.207.207,0,0,1,.277-.307,1.383,1.383,0,0,0,.469.255.85.85,0,0,0,.905-.248.207.207,0,1,1,.293.293A1.287,1.287,0,0,1,8.1,9.974Z"/>
  <path fill="context-fill" d="M14.573,5.842a.489.489,0,0,0-.7,0,1.915,1.915,0,0,0-.464-1C12.842,1.452,10.651,0,8.035,0c-2.6,0-4.777,1.557-5.36,4.83A1.91,1.91,0,0,0,2.2,5.843a.489.489,0,0,0-.7,0s-.214,2.883,1.11,3.572L2.631,8.03a8.96,8.96,0,0,0,1.192,3.243,6.087,6.087,0,0,1-.316,2.51c-.793.962,1.377,2.14,4.431,2.21V16c.038,0,.073,0,.111,0s.073,0,.111,0v-.006c3.054-.07,5.133-1.359,4.431-2.21a8.341,8.341,0,0,1-.294-2.59,8.976,8.976,0,0,0,1.143-3.163l.024,1.383C14.786,8.725,14.573,5.842,14.573,5.842Zm-1.834.639A1.919,1.919,0,1,1,10.82,4.562,1.921,1.921,0,0,1,12.738,6.481ZM8.035.59a3.071,3.071,0,0,1,2.217.945l-.3.3a2.655,2.655,0,0,0-3.842,0l-.3-.3A3.071,3.071,0,0,1,8.035.59Zm0,2.094a.984.984,0,0,0-.736.332l-.3-.3a1.4,1.4,0,0,1,2.066,0l-.3.3A.984.984,0,0,0,8.035,2.684Zm.44.628-.44.44-.44-.44a.567.567,0,0,1,.88,0Zm-.44-1.466a1.818,1.818,0,0,0-1.328.578l-.3-.3a2.238,2.238,0,0,1,3.25,0l-.3.3A1.817,1.817,0,0,0,8.035,1.846ZM5.916,3.606c.267-.1.956-.208,1.725.777,0,0,.174.235.359.23a.484.484,0,0,0,.367-.23c.817-1.048,1.61-.868,1.856-.776a3.646,3.646,0,0,1,.938.6,4.154,4.154,0,0,0-2.274.85H7.182a4.04,4.04,0,0,0-2.214-.845A3.8,3.8,0,0,1,5.916,3.606Zm-.667.957A1.919,1.919,0,1,1,3.331,6.481,1.921,1.921,0,0,1,5.25,4.562Zm5.5,8.674a2.477,2.477,0,0,1-2.715,1.04,2.477,2.477,0,0,1-2.714-1.04A11.693,11.693,0,0,1,3.31,8.163,3.409,3.409,0,0,0,5,8.582c2.579,0,2.841-1.152,2.842-2.266h.381c0,1.115.263,2.266,2.842,2.266a3.411,3.411,0,0,0,1.693-.422A11.718,11.718,0,0,1,10.749,13.236Z"/>
  <g>
    <path fill="context-fill" d="M10.84,4.81a1.671,1.671,0,1,0,1.671,1.671A1.673,1.673,0,0,0,10.84,4.81ZM9.825,7.2a2.583,2.583,0,0,0,.028.358,1.458,1.458,0,0,1,.987-2.533c.05,0,.1,0,.149.007A2.6,2.6,0,0,0,9.825,7.2Z"/>
    <path fill="context-fill" d="M5.27,4.81A1.671,1.671,0,1,0,6.941,6.481,1.673,1.673,0,0,0,5.27,4.81ZM4.255,7.2a2.616,2.616,0,0,0,.028.358A1.458,1.458,0,0,1,5.27,5.021c.05,0,.1,0,.149.007A2.6,2.6,0,0,0,4.255,7.2Z"/>
  </g>
</svg>
